<svg width="16" height="16" viewBox="0 0 16 16" fill="none" xmlns="http://www.w3.org/2000/svg">
<path d="M10.3797 1.33333H5.61952C5.85259 0.928717 6.18799 0.592521 6.59207 0.35849C6.99614 0.124459 7.45467 0.000825754 7.92163 0L8.07763 0C8.54459 0.000825754 9.00312 0.124459 9.40719 0.35849C9.81127 0.592521 10.1467 0.928717 10.3797 1.33333ZM13.6666 9.33333H13.3332V10.6667C13.3332 10.8435 13.263 11.013 13.1379 11.1381C13.0129 11.2631 12.8433 11.3333 12.6665 11.3333C12.4897 11.3333 12.3201 11.2631 12.1951 11.1381C12.0701 11.013 11.9998 10.8435 11.9998 10.6667V9.33333H3.99944V10.6667C3.99944 10.8435 3.9292 11.013 3.80417 11.1381C3.67914 11.2631 3.50956 11.3333 3.33275 11.3333C3.15593 11.3333 2.98635 11.2631 2.86132 11.1381C2.73629 11.013 2.66605 10.8435 2.66605 10.6667V9.33333H2.3327C1.74338 9.33217 1.17555 9.55454 0.743743 9.95558C0.31194 10.3566 0.0483012 10.9065 0.00600718 11.4943C-0.0362868 12.082 0.145911 12.664 0.515849 13.1227C0.885787 13.5814 1.41593 13.8828 1.99935 13.966V14.6667C1.99935 15.0203 2.13983 15.3594 2.38989 15.6095C2.63995 15.8595 2.97911 16 3.33275 16C3.68638 16 4.02554 15.8595 4.2756 15.6095C4.52566 15.3594 4.66614 15.0203 4.66614 14.6667V14H11.3331V14.6667C11.3331 15.0203 11.4736 15.3594 11.7237 15.6095C11.9737 15.8595 12.3129 16 12.6665 16C13.0202 16 13.3593 15.8595 13.6094 15.6095C13.8594 15.3594 13.9999 15.0203 13.9999 14.6667V13.9673C14.5528 13.8935 15.0601 13.6216 15.4279 13.2023C15.7957 12.7829 15.9989 12.2444 16 11.6867V11.6667C16 11.0478 15.7542 10.4543 15.3166 10.0168C14.8789 9.57917 14.2854 9.33333 13.6666 9.33333ZM1.08464 8.32733C1.58381 8.11113 2.12206 7.99972 2.66605 8H13.3332C13.8772 7.99972 14.4154 8.11113 14.9146 8.32733L13.8852 5.01267C13.6769 4.33162 13.2548 3.73575 12.6815 3.31323C12.1081 2.89072 11.414 2.66401 10.7018 2.66667H5.2975C4.58537 2.66397 3.89128 2.89058 3.31794 3.31297C2.7446 3.73535 2.32248 4.33108 2.11402 5.012L1.08464 8.32733Z" fill="#8D8D8D"/>
</svg>
