<svg width="20" height="20" viewBox="0 0 20 20" fill="none" xmlns="http://www.w3.org/2000/svg">
<rect x="0.5" y="0.5" width="19" height="19" rx="9.5" stroke="#8D8D8D"/>
<rect width="13.8564" height="13.8564" transform="translate(3.07178 3.07179)" fill="white" fill-opacity="0.01"/>
<path fill-rule="evenodd" clip-rule="evenodd" d="M6.42038 10C6.42038 10.574 5.9551 11.0392 5.38115 11.0392C4.8072 11.0392 4.34192 10.574 4.34192 10C4.34192 9.42605 4.8072 8.96077 5.38115 8.96077C5.9551 8.96077 6.42038 9.42605 6.42038 10ZM11.0392 10C11.0392 10.574 10.5739 11.0392 9.99995 11.0392C9.426 11.0392 8.96072 10.574 8.96072 10C8.96072 9.42605 9.426 8.96077 9.99995 8.96077C10.5739 8.96077 11.0392 9.42605 11.0392 10ZM14.6188 11.0392C15.1927 11.0392 15.658 10.574 15.658 10C15.658 9.42605 15.1927 8.96077 14.6188 8.96077C14.0448 8.96077 13.5795 9.42605 13.5795 10C13.5795 10.574 14.0448 11.0392 14.6188 11.0392Z" fill="#8E8C99"/>
</svg>
