<svg width="16" height="14" viewBox="0 0 16 14" fill="none" xmlns="http://www.w3.org/2000/svg">
<g clip-path="url(#clip0_3615_4878)">
<path d="M11.6667 0C10.1027 0 8.76067 1.2775 8 3.23167C7.23933 1.2775 5.89733 0 4.33333 0C1.90333 0 0 3.07475 0 7C0 10.9253 1.90333 14 4.33333 14C5.89733 14 7.23933 12.7225 8 10.7683C8.76067 12.7225 10.1027 14 11.6667 14C14.0967 14 16 10.9253 16 7C16 3.07475 14.0967 0 11.6667 0ZM4.33333 12.8333C3.34667 12.8333 2.28333 11.6737 1.726 9.81283C1.91467 9.87758 2.11867 9.91667 2.33333 9.91667C3.25267 9.91667 4 9.26275 4 8.45833C4 7.65392 3.25267 7 2.33333 7C1.96067 7 1.62 7.11142 1.342 7.29283C1.33933 7.19483 1.33333 7.09975 1.33333 7C1.33333 3.56183 2.91467 1.16667 4.33333 1.16667C5.752 1.16667 7.33333 3.56183 7.33333 7C7.33333 10.4382 5.752 12.8333 4.33333 12.8333ZM11.6667 12.8333C10.68 12.8333 9.61667 11.6737 9.05933 9.81283C9.248 9.87758 9.452 9.91667 9.66667 9.91667C10.586 9.91667 11.3333 9.26275 11.3333 8.45833C11.3333 7.65392 10.586 7 9.66667 7C9.294 7 8.95333 7.11142 8.67533 7.29283C8.67267 7.19483 8.66667 7.09975 8.66667 7C8.66667 3.56183 10.248 1.16667 11.6667 1.16667C13.0853 1.16667 14.6667 3.56183 14.6667 7C14.6667 10.4382 13.0853 12.8333 11.6667 12.8333Z" fill="#FCFCFC"/>
</g>
<defs>
<clipPath id="clip0_3615_4878">
<rect width="16" height="14" fill="white"/>
</clipPath>
</defs>
</svg>
