<svg width="16" height="17" viewBox="0 0 16 17" fill="none" xmlns="http://www.w3.org/2000/svg">
<path d="M2 6.12277C2 9.94158 7.06419 15 10.8786 15C11.7134 15 12.4933 14.6851 13.0682 14.1103L13.5681 13.5355C14.1481 12.9556 14.1481 11.9759 13.5431 11.3711C13.5282 11.3561 12.3233 10.4314 12.3233 10.4314C11.7234 9.86161 10.7786 9.86161 10.1837 10.4314L9.4538 11.0162C7.85406 10.3365 6.71924 9.19681 5.98936 7.54233L6.56927 6.81256C7.14418 6.21774 7.14418 5.26804 6.56927 4.67323C6.56927 4.67323 5.64442 3.4686 5.62942 3.45361C5.02452 2.8488 4.04467 2.8488 3.43977 3.45361L2.91485 3.90847C2.31495 4.50328 2 5.28304 2 6.11778V6.12277Z" fill="#1C2024"/>
</svg>
