<svg width="15" height="17" viewBox="0 0 15 17" fill="none" xmlns="http://www.w3.org/2000/svg">
<path d="M7.06988 0C5.19558 0.00206202 3.39864 0.747487 2.07325 2.07275C0.747854 3.398 0.00224982 5.19488 0 7.06917C0 8.88958 1.40958 11.7385 4.18979 15.5366C4.52077 15.99 4.95412 16.3589 5.45459 16.6132C5.95506 16.8675 6.5085 17 7.06988 17C7.63125 17 8.18469 16.8675 8.68516 16.6132C9.18563 16.3589 9.61898 15.99 9.94996 15.5366C12.7302 11.7385 14.1398 8.88958 14.1398 7.06917C14.1375 5.19488 13.3919 3.398 12.0665 2.07275C10.7411 0.747487 8.94417 0.00206202 7.06988 0ZM7.06988 9.88692C6.50949 9.88692 5.9617 9.72075 5.49576 9.40941C5.02982 9.09808 4.66666 8.65558 4.45222 8.13785C4.23777 7.62013 4.18166 7.05044 4.29098 6.50083C4.40031 5.95122 4.67016 5.44636 5.06641 5.05011C5.46265 4.65387 5.96751 4.38402 6.51712 4.27469C7.06673 4.16537 7.63642 4.22148 8.15415 4.43593C8.67187 4.65037 9.11438 5.01353 9.42571 5.47947C9.73704 5.94541 9.90321 6.4932 9.90321 7.05358C9.90321 7.80503 9.6047 8.5257 9.07335 9.05705C8.54199 9.58841 7.82132 9.88692 7.06988 9.88692Z" fill="currentColor"/>
</svg>
